<svg width="192" height="32" viewBox="0 0 192 32" fill="none" xmlns="http://www.w3.org/2000/svg">
<path fill-rule="evenodd" clip-rule="evenodd" d="M60.3823 26.7895C59.3865 27.2013 57.2574 27.613 55.5739 27.613C52.9297 27.613 50.9372 26.8581 49.3919 25.3131C47.3994 23.3915 46.3348 19.96 46.4035 15.9787C46.5065 7.56987 51.3149 4.06812 56.2264 4.06812C57.9785 4.06812 59.2834 4.41208 60.0046 4.75523L59.2139 8.63281C58.5615 8.28966 57.7038 8.11809 56.5698 8.11809C53.5135 8.11809 51.0746 10.2121 51.0746 16.2532C51.0746 21.8122 53.2388 23.8033 55.3335 23.8033C55.7456 23.8033 56.0547 23.7689 56.2264 23.7003V18.1062H54.1652V14.4337H60.3823V26.7895Z" fill="#FFFFFE"/>
<path fill-rule="evenodd" clip-rule="evenodd" d="M67.2812 15.8411C67.2812 21.0921 68.2771 23.7687 70.0971 23.7687C71.9866 23.7687 72.7078 20.3372 72.7078 15.6352C72.7078 11.5852 72.0897 7.91272 70.0628 7.91272C68.2771 7.91272 67.2812 10.8638 67.2812 15.8411ZM77.4143 15.4293C77.4143 24.1469 74.3229 27.6814 69.9265 27.6814C64.6725 27.6814 62.6113 22.1215 62.6113 15.7725C62.6113 9.4577 65.119 4 70.2356 4C75.8347 4 77.4143 10.1432 77.4143 15.4293Z" fill="#FFFFFE"/>
<path fill-rule="evenodd" clip-rule="evenodd" d="M80.2617 4.27429H84.7611V23.5968H90.7027V27.4066H80.2617V4.27429Z" fill="#FFFFFE"/>
<path fill-rule="evenodd" clip-rule="evenodd" d="M97.8086 23.8373C98.0146 23.906 98.358 23.906 98.5992 23.906C100.763 23.906 102.651 21.7776 102.651 15.3951C102.651 10.658 101.415 7.77551 98.7022 7.77551C98.3924 7.77551 98.0833 7.77551 97.8086 7.87846V23.8373ZM93.3105 4.61854C94.4446 4.34321 96.0921 4.17163 97.8786 4.17163C100.798 4.17163 102.824 4.85793 104.301 6.23052C106.293 8.01572 107.325 11.0706 107.325 15.5666C107.325 20.2343 106.122 23.5628 104.095 25.348C102.55 26.8579 100.248 27.5785 97.0201 27.5785C95.6121 27.5785 94.2042 27.4412 93.3105 27.3383V4.61854Z" fill="#FFFFFE"/>
<path fill-rule="evenodd" clip-rule="evenodd" d="M119.961 17.2478H114.671V23.4947H120.648V27.4074H110.172V4.27429H120.236V8.18701H114.671V13.5074H119.961V17.2478Z" fill="#FFFFFE"/>
<path fill-rule="evenodd" clip-rule="evenodd" d="M123.701 27.407V4.27466H127.823L131.394 13.3354C132.082 15.1198 133.215 18.106 133.868 20.0971H133.937C133.8 17.6599 133.49 13.6443 133.49 9.38839V4.27466H137.44V27.407H133.318L129.781 18.6207C129.025 16.6648 127.96 13.7472 127.445 11.654H127.376C127.479 13.9874 127.651 17.557 127.651 22.1903V27.407H123.701Z" fill="#FFFFFE"/>
<path fill-rule="evenodd" clip-rule="evenodd" d="M144.959 15.8411C144.959 21.0921 145.955 23.7686 147.775 23.7686C149.664 23.7686 150.385 20.3372 150.385 15.6352C150.385 11.5852 149.767 7.91271 147.741 7.91271C145.955 7.91271 144.959 10.8638 144.959 15.8411ZM155.091 15.4293C155.091 24.1469 151.999 27.6814 147.603 27.6814C142.348 27.6814 140.287 22.1215 140.287 15.7725C140.287 9.4577 142.796 4 147.912 4C153.51 4 155.091 10.1432 155.091 15.4293Z" fill="#FFFFFE"/>
<path fill-rule="evenodd" clip-rule="evenodd" d="M160.342 27.407L156.393 4.27466H161.064L162.198 13.507C162.506 16.1501 162.712 18.7923 162.987 21.6061H163.09C163.399 18.758 163.915 16.253 164.395 13.4727L166.045 4.27466H169.685L171.23 13.4041C171.642 16.0128 172.054 18.5864 172.329 21.6061H172.397C172.707 18.5864 172.982 16.1157 173.291 13.4384L174.424 4.27466H178.821L174.734 27.407H170.097L168.723 19.8226C168.345 17.6942 168.001 15.0512 167.692 12.2373H167.623C167.211 15.0169 166.834 17.5913 166.354 19.8569L164.807 27.407H160.342Z" fill="#FFFFFE"/>
<path fill-rule="evenodd" clip-rule="evenodd" d="M181.254 4.27429H185.753V23.5968H191.696V27.4066H181.254V4.27429Z" fill="#FFFFFE"/>
<path fill-rule="evenodd" clip-rule="evenodd" d="M60.3823 26.7895C59.3865 27.2013 57.2574 27.613 55.5739 27.613C52.9297 27.613 50.9372 26.8581 49.3919 25.3131C47.3994 23.3915 46.3348 19.96 46.4035 15.9787C46.5065 7.56987 51.3149 4.06812 56.2264 4.06812C57.9785 4.06812 59.2834 4.41208 60.0046 4.75523L59.2139 8.63281C58.5615 8.28966 57.7038 8.11809 56.5698 8.11809C53.5135 8.11809 51.0746 10.2121 51.0746 16.2532C51.0746 21.8122 53.2388 23.8033 55.3335 23.8033C55.7456 23.8033 56.0547 23.7689 56.2264 23.7003V18.1062H54.1652V14.4337H60.3823V26.7895Z" fill="#F9BE39"/>
<path fill-rule="evenodd" clip-rule="evenodd" d="M67.2812 15.8411C67.2812 21.0921 68.2771 23.7687 70.0971 23.7687C71.9866 23.7687 72.7078 20.3372 72.7078 15.6352C72.7078 11.5852 72.0897 7.91272 70.0628 7.91272C68.2771 7.91272 67.2812 10.8638 67.2812 15.8411ZM77.4143 15.4293C77.4143 24.1469 74.3229 27.6814 69.9265 27.6814C64.6725 27.6814 62.6113 22.1215 62.6113 15.7725C62.6113 9.4577 65.119 4 70.2356 4C75.8347 4 77.4143 10.1432 77.4143 15.4293Z" fill="#F9BE39"/>
<path fill-rule="evenodd" clip-rule="evenodd" d="M80.2617 4.27429H84.7611V23.5968H90.7027V27.4066H80.2617V4.27429Z" fill="#F9BE39"/>
<path fill-rule="evenodd" clip-rule="evenodd" d="M97.8086 23.8373C98.0146 23.906 98.358 23.906 98.5992 23.906C100.763 23.906 102.651 21.7776 102.651 15.3951C102.651 10.658 101.415 7.77551 98.7022 7.77551C98.3924 7.77551 98.0833 7.77551 97.8086 7.87846V23.8373ZM93.3105 4.61854C94.4446 4.34321 96.0921 4.17163 97.8786 4.17163C100.798 4.17163 102.824 4.85793 104.301 6.23052C106.293 8.01572 107.325 11.0706 107.325 15.5666C107.325 20.2343 106.122 23.5628 104.095 25.348C102.55 26.8579 100.248 27.5785 97.0201 27.5785C95.6121 27.5785 94.2042 27.4412 93.3105 27.3383V4.61854Z" fill="#F9BE39"/>
<path fill-rule="evenodd" clip-rule="evenodd" d="M119.961 17.2478H114.671V23.4947H120.648V27.4074H110.172V4.27429H120.236V8.18701H114.671V13.5074H119.961V17.2478Z" fill="#F9BE39"/>
<path fill-rule="evenodd" clip-rule="evenodd" d="M123.701 27.407V4.27466H127.823L131.394 13.3354C132.082 15.1198 133.215 18.106 133.868 20.0971H133.937C133.8 17.6599 133.49 13.6443 133.49 9.38839V4.27466H137.44V27.407H133.318L129.781 18.6207C129.025 16.6648 127.96 13.7472 127.445 11.654H127.376C127.479 13.9874 127.651 17.557 127.651 22.1903V27.407H123.701Z" fill="#F9BE39"/>
<path fill-rule="evenodd" clip-rule="evenodd" d="M144.959 15.8411C144.959 21.0921 145.955 23.7686 147.775 23.7686C149.664 23.7686 150.385 20.3372 150.385 15.6352C150.385 11.5852 149.767 7.91271 147.741 7.91271C145.955 7.91271 144.959 10.8638 144.959 15.8411ZM155.091 15.4293C155.091 24.1469 151.999 27.6814 147.603 27.6814C142.348 27.6814 140.287 22.1215 140.287 15.7725C140.287 9.4577 142.796 4 147.912 4C153.51 4 155.091 10.1432 155.091 15.4293Z" fill="#242424"/>
<path fill-rule="evenodd" clip-rule="evenodd" d="M160.342 27.407L156.393 4.27466H161.064L162.198 13.507C162.506 16.1501 162.712 18.7923 162.987 21.6061H163.09C163.399 18.758 163.915 16.253 164.395 13.4727L166.045 4.27466H169.685L171.23 13.4041C171.642 16.0128 172.054 18.5864 172.329 21.6061H172.397C172.707 18.5864 172.982 16.1157 173.291 13.4384L174.424 4.27466H178.821L174.734 27.407H170.097L168.723 19.8226C168.345 17.6942 168.001 15.0512 167.692 12.2373H167.623C167.211 15.0169 166.834 17.5913 166.354 19.8569L164.807 27.407H160.342Z" fill="#242424"/>
<path fill-rule="evenodd" clip-rule="evenodd" d="M181.254 4.27429H185.753V23.5968H191.696V27.4066H181.254V4.27429Z" fill="#242424"/>
<mask id="mask0_328_1463" style="mask-type:alpha" maskUnits="userSpaceOnUse" x="5" y="0" width="29" height="32">
<path fill-rule="evenodd" clip-rule="evenodd" d="M5.05078 0.200195H33.7618V31.319H5.05078V0.200195Z" fill="white"/>
</mask>
<g mask="url(#mask0_328_1463)">
<path fill-rule="evenodd" clip-rule="evenodd" d="M33.7615 24.6317C33.7615 24.8666 33.9247 27.3578 25.9798 31.319C31.8352 26.7593 31.4037 25.9396 31.2903 25.6182C16.6904 23.6281 0.183991 15.7193 6.39583 0.200012C13.4565 17.5992 29.5272 23.0085 33.7615 24.6317Z" fill="#F9BE39"/>
</g>
<path fill-rule="evenodd" clip-rule="evenodd" d="M29.5353 27.3412C17.2858 26.8265 -4.03744 23.8055 2.06856 9.5274C6.35819 20.0111 18.6651 24.8329 30.1069 26.6563C29.9881 26.8299 29.7115 27.1812 29.5353 27.3412Z" fill="#F9BE39"/>
<mask id="mask1_328_1463" style="mask-type:alpha" maskUnits="userSpaceOnUse" x="0" y="19" width="29" height="11">
<path fill-rule="evenodd" clip-rule="evenodd" d="M0 19.8436H28.5021V29.5053H0V19.8436Z" fill="white"/>
</mask>
<g mask="url(#mask1_328_1463)">
<path fill-rule="evenodd" clip-rule="evenodd" d="M28.0948 28.7348C15.5113 30.0679 -2.4004 30.97 0.266788 19.8436C6.60223 26.0189 13.6717 27.1804 28.5024 28.361C28.3331 28.5401 28.2416 28.6075 28.0948 28.7348Z" fill="#F9BE39"/>
</g>
</svg>
