<svg width="165" height="27" viewBox="0 0 165 27" fill="none" xmlns="http://www.w3.org/2000/svg">
<path fill-rule="evenodd" clip-rule="evenodd" d="M51.9727 22.8872C51.1156 23.2416 49.283 23.5961 47.834 23.5961C45.558 23.5961 43.843 22.9463 42.5129 21.6164C40.7979 19.9624 39.8816 17.0088 39.9407 13.5819C40.0294 6.34417 44.1681 3.33008 48.3956 3.33008C49.9037 3.33008 51.0269 3.62614 51.6476 3.9215L50.9671 7.25908C50.4055 6.96372 49.6673 6.81604 48.6911 6.81604C46.0605 6.81604 43.9612 8.61844 43.9612 13.8182C43.9612 18.603 45.8241 20.3168 47.6271 20.3168C47.9818 20.3168 48.2478 20.2873 48.3956 20.2282V15.4132H46.6214V12.2521H51.9727V22.8872Z" fill="white"/>
<path fill-rule="evenodd" clip-rule="evenodd" d="M57.9117 13.4635C57.9117 17.9833 58.7688 20.2871 60.3354 20.2871C61.9618 20.2871 62.5825 17.3335 62.5825 13.2863C62.5825 9.80036 62.0504 6.6393 60.3058 6.6393C58.7688 6.6393 57.9117 9.1794 57.9117 13.4635ZM66.6326 13.1091C66.6326 20.6127 63.9717 23.6549 60.1876 23.6549C55.6653 23.6549 53.8911 18.8693 53.8911 13.4045C53.8911 7.96913 56.0495 3.27148 60.4536 3.27148C65.2729 3.27148 66.6326 8.55915 66.6326 13.1091Z" fill="white"/>
<path fill-rule="evenodd" clip-rule="evenodd" d="M69.0845 3.50488H72.9572V20.1365H78.0714V23.4157H69.0845V3.50488Z" fill="white"/>
<path fill-rule="evenodd" clip-rule="evenodd" d="M84.1877 20.3459C84.365 20.405 84.6606 20.405 84.8682 20.405C86.7304 20.405 88.356 18.5731 88.356 13.0794C88.356 9.00197 87.2919 6.52094 84.9569 6.52094C84.6902 6.52094 84.4242 6.52094 84.1877 6.60955V20.3459ZM80.3149 3.80362C81.291 3.56663 82.7091 3.41895 84.2468 3.41895C86.7599 3.41895 88.5038 4.00967 89.7748 5.19111C91.4898 6.72769 92.3773 9.3571 92.3773 13.227C92.3773 17.2446 91.342 20.1096 89.5974 21.6462C88.2674 22.9458 86.2863 23.5661 83.5079 23.5661C82.296 23.5661 81.0841 23.4479 80.3149 23.3593V3.80362Z" fill="white"/>
<path fill-rule="evenodd" clip-rule="evenodd" d="M103.254 14.6716H98.7004V20.0486H103.845V23.4164H94.8276V3.50488H103.49V6.8727H98.7004V11.4522H103.254V14.6716Z" fill="white"/>
<path fill-rule="evenodd" clip-rule="evenodd" d="M106.475 23.4157V3.50488H110.022L113.096 11.3038C113.688 12.8397 114.663 15.41 115.226 17.1238H115.285C115.167 15.0261 114.9 11.5696 114.9 7.90646V3.50488H118.3V23.4157H114.752L111.708 15.8531C111.057 14.1695 110.14 11.6582 109.697 9.85655H109.638C109.727 11.865 109.874 14.9375 109.874 18.9255V23.4157H106.475Z" fill="white"/>
<path fill-rule="evenodd" clip-rule="evenodd" d="M124.771 13.4635C124.771 17.9833 125.628 20.2871 127.194 20.2871C128.821 20.2871 129.442 17.3335 129.442 13.2863C129.442 9.80036 128.91 6.6393 127.165 6.6393C125.628 6.6393 124.771 9.1794 124.771 13.4635ZM133.492 13.1091C133.492 20.6127 130.831 23.6549 127.047 23.6549C122.524 23.6549 120.75 18.8693 120.75 13.4045C120.75 7.96913 122.909 3.27148 127.313 3.27148C132.131 3.27148 133.492 8.55915 133.492 13.1091Z" fill="white"/>
<path fill-rule="evenodd" clip-rule="evenodd" d="M138.012 23.4157L134.612 3.50488H138.632L139.608 11.4515C139.874 13.7265 140.051 16.0008 140.288 18.4227H140.376C140.642 15.9712 141.086 13.8151 141.5 11.422L142.92 3.50488H146.053L147.383 11.3629C147.738 13.6083 148.092 15.8235 148.329 18.4227H148.388C148.655 15.8235 148.891 13.6969 149.157 11.3924L150.132 3.50488H153.916L150.399 23.4157H146.407L145.225 16.8875C144.9 15.0556 144.604 12.7806 144.338 10.3587H144.279C143.924 12.7511 143.599 14.967 143.186 16.9171L141.855 23.4157H138.012Z" fill="white"/>
<path fill-rule="evenodd" clip-rule="evenodd" d="M156.012 3.50488H159.885V20.1365H165V23.4157H156.012V3.50488Z" fill="white"/>
<path fill-rule="evenodd" clip-rule="evenodd" d="M51.9727 22.8872C51.1156 23.2416 49.283 23.5961 47.834 23.5961C45.558 23.5961 43.843 22.9463 42.5129 21.6164C40.7979 19.9624 39.8816 17.0088 39.9407 13.5819C40.0294 6.34417 44.1681 3.33008 48.3956 3.33008C49.9037 3.33008 51.0269 3.62614 51.6476 3.9215L50.9671 7.25908C50.4055 6.96372 49.6673 6.81604 48.6911 6.81604C46.0605 6.81604 43.9612 8.61844 43.9612 13.8182C43.9612 18.603 45.8241 20.3168 47.6271 20.3168C47.9818 20.3168 48.2478 20.2873 48.3956 20.2282V15.4132H46.6214V12.2521H51.9727V22.8872Z" fill="#F5C118"/>
<path fill-rule="evenodd" clip-rule="evenodd" d="M57.9117 13.4635C57.9117 17.9833 58.7688 20.2871 60.3354 20.2871C61.9618 20.2871 62.5825 17.3335 62.5825 13.2863C62.5825 9.80036 62.0504 6.6393 60.3058 6.6393C58.7688 6.6393 57.9117 9.1794 57.9117 13.4635ZM66.6326 13.1091C66.6326 20.6127 63.9717 23.6549 60.1876 23.6549C55.6653 23.6549 53.8911 18.8693 53.8911 13.4045C53.8911 7.96913 56.0495 3.27148 60.4536 3.27148C65.2729 3.27148 66.6326 8.55915 66.6326 13.1091Z" fill="#F5C118"/>
<path fill-rule="evenodd" clip-rule="evenodd" d="M69.0845 3.50488H72.9572V20.1365H78.0714V23.4157H69.0845V3.50488Z" fill="#F5C118"/>
<path fill-rule="evenodd" clip-rule="evenodd" d="M84.1877 20.3459C84.365 20.405 84.6606 20.405 84.8682 20.405C86.7304 20.405 88.356 18.5731 88.356 13.0794C88.356 9.00197 87.2919 6.52094 84.9569 6.52094C84.6902 6.52094 84.4242 6.52094 84.1877 6.60955V20.3459ZM80.3149 3.80362C81.291 3.56663 82.7091 3.41895 84.2468 3.41895C86.7599 3.41895 88.5038 4.00967 89.7748 5.19111C91.4898 6.72769 92.3773 9.3571 92.3773 13.227C92.3773 17.2446 91.342 20.1096 89.5974 21.6462C88.2674 22.9458 86.2863 23.5661 83.5079 23.5661C82.296 23.5661 81.0841 23.4479 80.3149 23.3593V3.80362Z" fill="#F5C118"/>
<path fill-rule="evenodd" clip-rule="evenodd" d="M103.254 14.6716H98.7004V20.0486H103.845V23.4164H94.8276V3.50488H103.49V6.8727H98.7004V11.4522H103.254V14.6716Z" fill="#F5C118"/>
<path fill-rule="evenodd" clip-rule="evenodd" d="M106.475 23.4157V3.50488H110.022L113.096 11.3038C113.688 12.8397 114.663 15.41 115.226 17.1238H115.285C115.167 15.0261 114.9 11.5696 114.9 7.90646V3.50488H118.3V23.4157H114.752L111.708 15.8531C111.057 14.1695 110.14 11.6582 109.697 9.85655H109.638C109.727 11.865 109.874 14.9375 109.874 18.9255V23.4157H106.475Z" fill="#F5C118"/>
<path fill-rule="evenodd" clip-rule="evenodd" d="M124.771 13.4635C124.771 17.9833 125.628 20.2871 127.194 20.2871C128.821 20.2871 129.442 17.3335 129.442 13.2863C129.442 9.80036 128.91 6.6393 127.165 6.6393C125.628 6.6393 124.771 9.1794 124.771 13.4635ZM133.492 13.1091C133.492 20.6127 130.831 23.6549 127.047 23.6549C122.524 23.6549 120.75 18.8693 120.75 13.4045C120.75 7.96913 122.909 3.27148 127.313 3.27148C132.131 3.27148 133.492 8.55915 133.492 13.1091Z" fill="white"/>
<path fill-rule="evenodd" clip-rule="evenodd" d="M138.012 23.4157L134.612 3.50488H138.632L139.608 11.4515C139.874 13.7265 140.051 16.0008 140.288 18.4227H140.376C140.642 15.9712 141.086 13.8151 141.5 11.422L142.92 3.50488H146.053L147.383 11.3629C147.738 13.6083 148.092 15.8235 148.329 18.4227H148.388C148.655 15.8235 148.891 13.6969 149.157 11.3924L150.132 3.50488H153.916L150.399 23.4157H146.407L145.225 16.8875C144.9 15.0556 144.604 12.7806 144.338 10.3587H144.279C143.924 12.7511 143.599 14.967 143.186 16.9171L141.855 23.4157H138.012Z" fill="white"/>
<path fill-rule="evenodd" clip-rule="evenodd" d="M156.012 3.50488H159.885V20.1365H165V23.4157H156.012V3.50488Z" fill="white"/>
<mask id="mask0_797_83832" style="mask-type:alpha" maskUnits="userSpaceOnUse" x="4" y="0" width="26" height="27">
<path d="M4.34863 0H29.0613V26.7851H4.34863V0Z" fill="white"/>
</mask>
<g mask="url(#mask0_797_83832)">
<path fill-rule="evenodd" clip-rule="evenodd" d="M29.061 21.0282C29.061 21.2304 29.2015 23.3747 22.363 26.7843C27.403 22.8596 27.0315 22.154 26.934 21.8774C14.3673 20.1644 0.159608 13.3571 5.50637 -0.000976562C11.5837 14.9751 25.4164 19.6311 29.061 21.0282Z" fill="#F5C118"/>
</g>
<path fill-rule="evenodd" clip-rule="evenodd" d="M25.4207 23.3613C14.877 22.9183 -3.47665 20.318 1.77901 8.02832C5.47126 17.0521 16.0643 21.2024 25.9126 22.7717C25.8103 22.9212 25.5723 23.2236 25.4207 23.3613Z" fill="#F5C118"/>
<mask id="mask1_797_83832" style="mask-type:alpha" maskUnits="userSpaceOnUse" x="0" y="16" width="25" height="10">
<path d="M0 16.9092H24.5328V25.2254H0V16.9092Z" fill="white"/>
</mask>
<g mask="url(#mask1_797_83832)">
<path fill-rule="evenodd" clip-rule="evenodd" d="M24.1822 24.5622C13.3511 25.7096 -2.06612 26.4861 0.229635 16.9092C5.68278 22.2245 11.7677 23.2243 24.5331 24.2405C24.3873 24.3946 24.3086 24.4526 24.1822 24.5622Z" fill="#F5C118"/>
</g>
</svg>
